<svg width="1003" height="305" viewBox="0 0 1003 305" fill="none" xmlns="http://www.w3.org/2000/svg">
<path d="M136.364 258.728C195.107 258.728 242.728 211.107 242.728 152.364C242.728 93.6208 195.107 46 136.364 46C77.6208 46 30 93.6208 30 152.364C30 211.107 77.6208 258.728 136.364 258.728Z" stroke="#0D1015" stroke-width="60"/>
<path d="M435.383 243.029C416.281 260.887 378.092 258.508 349.88 258.508C290.852 258.508 243 210.657 243 151.629C243 92.601 290.852 44.749 349.88 44.749C378.092 44.749 416.281 47.127 435.383 29.27" stroke="#151A22" stroke-width="60"/>
<path d="M455 16H395V288.73H455V16Z" fill="#202835"/>
<path d="M647.504 243.251C628.402 261.108 590.212 258.73 562 258.73H485V16" stroke="#2B3647" stroke-width="60"/>
<path d="M763 227H638M638 288.8C638 288.8 638 263.811 638 227V288.8ZM800 288.8L763 227L800 288.8ZM763 227L638 16C638 81.233 638 168.861 638 227H763Z" stroke="#3D4B63" stroke-width="60" stroke-linejoin="bevel"/>
<path d="M786 254.721C795.551 263.637 814.646 262.449 828.751 262.449H919.503C949.017 262.449 972.94 238.559 972.94 209.089C972.94 179.619 949.017 155.729 919.503 155.729H839.002" stroke="#4C5E7A" stroke-width="60"/>
<path d="M839.691 155.62C810.177 155.62 786.251 131.694 786.251 102.18C786.251 72.666 810.177 48.74 839.691 48.74H930.443C944.549 48.74 963.64 49.929 973.2 41" stroke="#4C5E7A" stroke-width="60"/>
<path d="M309.29 20.06C309.29 20.06 213.425 49 213.6 152.005C213.777 256 311.77 283.95 311.77 283.95" stroke="white" stroke-width="2" stroke-linejoin="round"/>
<path d="M395 16V15H394V16H395ZM455 16H456V15H455V16ZM454 289C454 289.552 454.448 290 455 290C455.552 290 456 289.552 456 289H454ZM396 289V16H394V289H396ZM395 17H455V15H395V17ZM454 16V289H456V16H454Z" fill="white"/>
<path d="M606 227.5V288H608V227.5H606Z" fill="white"/>
<path d="M803.5 234.5L764.5 276.5C775 288 790 290.9 796.5 291.9" stroke="white" stroke-width="2"/>
</svg>
